<svg xmlns="http://www.w3.org/2000/svg" viewBox="0 0 96 96"><path fill="#fff" d="m.013 48s.03.588.085 1.691c.028.551.062 1.231.103 2.031.025.399.032.83.075 1.287q.104.681.221 1.445c.162 1.017.312 2.15.53 3.372.309 1.203.644 2.504 1 3.894.385 1.382.988 2.792 1.518 4.311a20.5388 20.5388 0 0 0 1.012 2.25751q.55 1.142 1.126 2.337c.411.781.914 1.533 1.38 2.324.498.771.916 1.618 1.505 2.367a49.88107 49.88107 0 0 0 13.28265 12.89648q1.416.86 2.854 1.734c.964.572 2.02 1 3.03 1.513l1.54.742 1.612.596c1.085.377 2.151.832 3.265 1.15a52.792 52.792 0 0 0 13.86223 2.05212 52.7911 52.7911 0 0 0 13.86218 -2.05212c1.114-.318 2.18-.773 3.265-1.15l1.612-.596 1.54-.742c1.013-.512 2.064-.941 3.03-1.513q1.438-.873 2.854-1.734a49.88107 49.88107 0 0 0 13.28263 -12.89648c.59-.75 1.01-1.596 1.505-2.367.466-.791.969-1.543 1.38-2.324q.575-1.194 1.126-2.337a20.5503 20.5503 0 0 0 1.012 -2.25751c.529-1.52 1.133-2.93 1.518-4.311.357-1.39.692-2.691 1-3.894.218-1.222.368-2.354.53-3.372.058-.381.111-.73.165-1.08.008-.024.007-.049.015-.073a48.4886 48.4886 0 0 0 .29131 -5.3012v-.002c0-.007-.023-.592-.079-1.688-.028-.551-.059-1.231-.099-2.031-.025-.399-.03-.83-.074-1.287q-.104-.681-.22-1.445c-.162-1.017-.312-2.15-.53-3.372-.309-1.203-.644-2.504-1-3.894-.385-1.382-.988-2.792-1.518-4.311a20.555 20.555 0 0 0 -1.01191 -2.25751q-.55-1.142-1.126-2.337c-.411-.781-.913-1.533-1.38-2.324-.498-.771-.916-1.618-1.505-2.367a49.881 49.881 0 0 0 -13.28264 -12.89647l-2.854-1.734c-.964-.572-2.02-1-3.03-1.513l-1.54-.742-1.612-.596c-1.085-.377-2.151-.832-3.265-1.15a52.79369 52.79369 0 0 0 -13.86207 -2.05218 52.7946 52.7946 0 0 0 -13.8623 2.05219c-1.114.318-2.18.773-3.265 1.15l-1.612.596-1.54.742c-1.013.512-2.065.941-3.03 1.513q-1.438.873-2.854 1.734a49.88107 49.88107 0 0 0 -13.28264 12.89648c-.59.75-1.01 1.596-1.505 2.367-.466.791-.969 1.543-1.38 2.324q-.575 1.194-1.126 2.337a20.54394 20.54394 0 0 0 -1.012 2.25751c-.529 1.52-1.133 2.93-1.518 4.311-.357 1.39-.692 2.691-1 3.894-.218 1.222-.368 2.354-.53 3.372-.058.381-.111.73-.165 1.08-.008.024-.013.049-.021.073a48.47473 48.47473 0 0 0 -.29773 5.29993m.594-6.442c.193-1.01.377-2.132.63-3.339.344-1.187.716-2.471 1.114-3.842.424-1.359 1.067-2.742 1.635-4.229a16.55923 16.55923 0 0 1 1.09994 -2.18924q.6-1.098 1.226-2.247c.443-.748.979-1.465 1.476-2.218.529-.733.976-1.539 1.594-2.245a46.1848 46.1848 0 0 1 3.81714 -4.31635 41.19216 41.19216 0 0 1 9.759 -7.44623q1.413-.721 2.849-1.453c.957-.476 1.994-.807 2.988-1.221l1.506-.593 1.568-.447c1.052-.277 2.079-.631 3.147-.849q1.605-.284 3.222-.571l.804-.14.819-.059 1.634-.121 1.627-.125a15.33313 15.33313 0 0 1 1.63562 .01l3.053.078 3.511.517.877.129a4.27712 4.27712 0 0 1 .8186 .16443l1.473.412 1.453.394.72.19.74.277q1.469.551 2.928 1.098c.956.39 1.863.898 2.775 1.341l1.337.718 1.256.85c.821.58 1.674 1.066 2.436 1.686q1.126.931 2.235 1.849a33.54088 33.54088 0 0 1 6.8592 8.30765 16.32989 16.32989 0 0 1 1.21887 2.15057c.35.735.71 1.436 1.018 2.147a21.88688 21.88688 0 0 1 .75873 2.15753c.221.711.484 1.373.659 2.056q.223 1.03.437 2.02a10.36193 10.36193 0 0 1 .34058 1.90344c.068 1.281.239 2.424.228 3.528-.049 1.113-.046 2.115-.112 3.038-.141.939-.312 1.786-.432 2.531l-.175 1.047c-.084.33-.206.641-.294.925l-.466 1.422c-.259.75-.397 1.15-.397 1.15a8.40951 8.40951 0 0 0 -.44434 3.12646 8.28616 8.28616 0 0 0 15.97129 2.65894l-.121.657c-.193 1.01-.377 2.132-.63 3.339-.344 1.187-.716 2.47-1.114 3.842-.424 1.36-1.067 2.742-1.635 4.229a16.55923 16.55923 0 0 1 -1.09991 2.18921q-.6 1.098-1.226 2.247c-.443.749-.979 1.465-1.476 2.218-.529.733-.976 1.539-1.594 2.245a46.20217 46.20217 0 0 1 -3.8172 4.31635 41.1913 41.1913 0 0 1 -9.759 7.44623q-1.413.721-2.849 1.453c-.957.476-1.994.807-2.988 1.221l-1.506.593-1.568.446c-1.052.277-2.079.631-3.147.849a49.1616 49.1616 0 0 1 -12.99728 .92265 .79778 .79778 0 1 0 .14746 -.00293l-.055-.008-.11-.016-.219-.032-.439-.065-.878-.129-1.755-.259-.877-.129a4.27417 4.27417 0 0 1 -.8186 -.16449l-1.473-.411-1.453-.394-.72-.19-.74-.277q-1.469-.551-2.928-1.098c-.956-.39-1.863-.898-2.775-1.341l-1.337-.718-1.256-.85c-.821-.58-1.674-1.066-2.436-1.686q-1.126-.931-2.235-1.849a33.54137 33.54137 0 0 1 -6.85919 -8.30767 16.329 16.329 0 0 1 -1.21887 -2.15057c-.35-.735-.71-1.436-1.018-2.147a21.88747 21.88747 0 0 1 -.75879 -2.15753c-.221-.711-.484-1.373-.659-2.056l-.437-2.02a10.36788 10.36788 0 0 1 -.34064 -1.9035c-.068-1.281-.239-2.424-.228-3.528.049-1.113.046-2.115.112-3.038.141-.939.312-1.786.432-2.531q.093-.554.175-1.047c.084-.33.206-.641.294-.925.184-.56.34-1.036.466-1.422l.398-1.15a8.40931 8.40931 0 0 0 .44427 -3.12646 8.28612 8.28612 0 0 0 -15.97127 -2.65894c.041-.22.078-.426.121-.657"/></svg>